HIERARCHY
ROOT Hips
{
	OFFSET 50.377998 -11.020316 100.695999
	CHANNELS 6 Xposition Yposition Zposition Xrotation Yrotation Zrotation
	JOINT spine
	{
		OFFSET 0.000000 -0.507026 8.817039
		CHANNELS 3 Xrotation Yrotation Zrotation
		JOINT spine1
		{
			OFFSET 0.000000 -0.000002 10.776604
			CHANNELS 3 Xrotation Yrotation Zrotation
			JOINT spine2
			{
				OFFSET 0.000000 -0.000001 10.325897
				CHANNELS 3 Xrotation Yrotation Zrotation
				JOINT Neck
				{
					OFFSET 0.000000 -1.263955 26.511002
					CHANNELS 3 Xrotation Yrotation Zrotation
					JOINT Head
					{
						OFFSET 0.000000 -0.000001 8.009659
						CHANNELS 3 Xrotation Yrotation Zrotation
						End Site
						{
							OFFSET 0.000000 6.393857 19.387894
						}
					}
				}
				JOINT RightShoulder
				{
					OFFSET -4.347950 0.605420 11.151199
					CHANNELS 3 Xrotation Yrotation Zrotation
					JOINT RightArm
					{
						OFFSET 0.000000 -0.000003 14.625793
						CHANNELS 3 Xrotation Yrotation Zrotation
						JOINT RightArmRoll
						{
							OFFSET 0.000000 -0.000001 7.383408
							CHANNELS 3 Xrotation Yrotation Zrotation
							JOINT RightForeArm
							{
								OFFSET 0.000000 -0.000004 21.505203
								CHANNELS 3 Xrotation Yrotation Zrotation
								JOINT RightForeArmRoll
								{
									OFFSET 0.000000 -0.000001 8.285324
									CHANNELS 3 Xrotation Yrotation Zrotation
									JOINT RightHand
									{
										OFFSET 0.000000 -0.000003 16.626801
										CHANNELS 3 Xrotation Yrotation Zrotation
										End Site
										{
											OFFSET 0.000000 0.000000 0.100006
										}
									}
								}
							}
						}
					}
				}
				JOINT LeftShoulder
				{
					OFFSET 4.347950 0.605420 11.151199
					CHANNELS 3 Xrotation Yrotation Zrotation
					JOINT LeftArm
					{
						OFFSET 0.000000 -0.000003 14.625793
						CHANNELS 3 Xrotation Yrotation Zrotation
						JOINT LeftArmRoll
						{
							OFFSET 0.000000 -0.000001 7.383408
							CHANNELS 3 Xrotation Yrotation Zrotation
							JOINT LeftForeArm
							{
								OFFSET 0.000000 -0.000004 21.505203
								CHANNELS 3 Xrotation Yrotation Zrotation
								JOINT LeftForeArmRoll
								{
									OFFSET 0.000000 -0.000001 8.285324
									CHANNELS 3 Xrotation Yrotation Zrotation
									JOINT LeftHand
									{
										OFFSET 0.000000 -0.000003 16.626801
										CHANNELS 3 Xrotation Yrotation Zrotation
										End Site
										{
											OFFSET 0.000000 0.000000 0.100006
										}
									}
								}
							}
						}
					}
				}
			}
		}
	}
	JOINT RightUpLeg
	{
		OFFSET -7.815102 1.202170 -1.433090
		CHANNELS 3 Xrotation Yrotation Zrotation
		JOINT RightUpLegRoll
		{
			OFFSET 0.000000 -0.000003 19.495895
			CHANNELS 3 Xrotation Yrotation Zrotation
			JOINT RightLeg
			{
				OFFSET 0.000000 0.000004 -24.142700
				CHANNELS 3 Xrotation Yrotation Zrotation
				JOINT RightLegRoll
				{
					OFFSET 0.000000 -0.000004 24.221703
					CHANNELS 3 Xrotation Yrotation Zrotation
					JOINT RightFoot
					{
						OFFSET 0.000000 -0.000004 20.160500
						CHANNELS 3 Xrotation Yrotation Zrotation
						JOINT RightToeBase
						{
							OFFSET 0.000000 -0.000003 16.853195
							CHANNELS 3 Xrotation Yrotation Zrotation
							End Site
							{
								OFFSET 0.007145 0.940780 8.161865
							}
						}
					}
				}
			}
		}
	}
	JOINT LeftUpLeg
	{
		OFFSET 7.815102 1.202170 -1.433090
		CHANNELS 3 Xrotation Yrotation Zrotation
		JOINT LeftUpLegRoll
		{
			OFFSET 0.000000 -0.000003 19.496002
			CHANNELS 3 Xrotation Yrotation Zrotation
			JOINT LeftLeg
			{
				OFFSET 0.000000 -0.000004 24.142593
				CHANNELS 3 Xrotation Yrotation Zrotation
				JOINT LeftLegRoll
				{
					OFFSET 0.000000 -0.000005 24.445602
					CHANNELS 3 Xrotation Yrotation Zrotation
					JOINT LeftFoot
					{
						OFFSET 0.000000 -0.000003 19.936600
						CHANNELS 3 Xrotation Yrotation Zrotation
						JOINT LeftToeBase
						{
							OFFSET 0.000000 -0.000003 16.853195
							CHANNELS 3 Xrotation Yrotation Zrotation
							End Site
							{
								OFFSET -0.032013 0.940780 8.161865
							}
						}
					}
				}
			}
		}
	}
}
MOTION
Frames: 4
Frame Time: 0.041667
51.639904 -11.395922 100.618988 -1.486238 0.858814 1.575322 -2.454543 -0.118407 -0.166368 -0.906600 -0.217387 -0.336781 0.738468 -0.221395 -0.334156 27.870099 -3.630756 3.409618 -5.661035 10.378545 2.361236 -6.860241 -69.367702 -8.924014 -52.411641 -113.952916 -37.664354 0.000000 0.000000 -0.000000 0.099063 -14.133881 -0.382542 -0.000002 -0.000028 -3.023819 -5.000223 -7.998753 0.000169 -9.678748 56.402954 11.288066 -23.026900 119.010418 15.802280 -0.000002 -0.000003 0.000004 3.567397 10.510948 0.189808 0.000004 -0.000004 2.999990 -5.000240 7.998762 -0.000156 0.147785 -178.879007 -0.782452 -179.999991 0.000005 -1.040998 175.545834 -1.634047 -0.358283 -0.000005 0.000002 0.044875 68.797722 6.888463 2.152783 25.456965 -7.355614 0.000009 -0.159735 176.402012 1.789185 -0.000005 -0.000005 -1.092130 -7.559871 2.383594 0.458570 -0.000003 -0.000003 -0.128319 70.263884 -6.871159 -2.102557 25.456959 7.355613 0.000001 
51.653099 -11.393221 100.620995 -1.470518 0.858050 1.572337 -2.456784 -0.118778 -0.168642 -0.911084 -0.218919 -0.341745 0.733985 -0.222967 -0.339098 27.876765 -3.620286 3.410766 -5.676195 10.380468 2.364581 -6.845570 -69.346870 -8.906199 -52.293287 -113.934181 -37.507827 -0.000002 0.000000 0.000001 0.090121 -14.097586 -0.375016 -0.000003 -0.000026 -3.022950 -5.000220 -7.998754 0.000168 -9.685158 56.420156 11.296899 -22.903952 118.977852 15.659044 -0.000001 -0.000002 0.000004 3.625169 10.502915 0.186132 0.000003 -0.000004 2.999990 -5.000240 7.998762 -0.000157 0.125638 -178.875005 -0.782123 -179.999991 0.000005 -1.040998 175.541462 -1.636040 -0.358563 -0.000005 0.000002 0.044875 68.795926 6.888459 2.152694 25.456964 -7.355615 0.000009 -0.181365 176.406014 1.795039 -0.000005 -0.000004 -1.092130 -7.566875 2.381771 0.458578 -0.000004 -0.000003 -0.128319 70.263768 -6.871124 -2.102659 25.456957 7.355613 0.000001 
51.659199 -11.420124 100.621986 -1.454011 0.857116 1.569326 -2.459242 -0.119119 -0.171019 -0.916012 -0.220416 -0.346887 0.729055 -0.224505 -0.344214 27.884502 -3.608824 3.412016 -5.692068 10.381683 2.368206 -6.827828 -69.325853 -8.884963 -52.175825 -113.917535 -37.351801 -0.000002 0.000000 0.000000 0.076827 -14.060790 -0.367820 -0.000003 -0.000026 -3.022049 -5.000217 -7.998753 0.000168 -9.691914 56.438328 11.306209 -22.780867 118.944370 15.516226 0.000000 -0.000003 0.000004 3.683133 10.495361 0.182418 0.000001 -0.000004 2.999991 -5.000241 7.998761 -0.000156 0.102539 -178.871002 -0.781755 -179.999991 0.000005 -1.040998 175.536982 -1.638018 -0.358846 -0.000005 0.000002 0.044874 68.793932 6.888476 2.152722 25.456969 -7.355615 0.000009 -0.204019 176.411027 1.801172 -0.000005 -0.000004 -1.092130 -7.574092 2.379927 0.458587 -0.000003 -0.000003 -0.128319 70.263556 -6.871154 -2.102575 25.456957 7.355613 0.000001 
51.665100 -11.413921 100.619987 -1.436960 0.856064 1.566294 -2.461867 -0.119440 -0.173467 -0.921253 -0.221888 -0.352152 0.723814 -0.226019 -0.349456 27.893115 -3.596673 3.413337 -5.708433 10.382488 2.372034 -6.808031 -69.304816 -8.861434 -52.058343 -113.902509 -37.195243 -0.000002 0.000000 0.000001 0.060488 -14.023693 -0.360840 -0.000001 -0.000027 -3.021141 -5.000221 -7.998753 0.000168 -9.698922 56.457084 11.315869 -22.657133 118.910930 15.373059 -0.000002 -0.000003 0.000003 3.741270 10.488300 0.178668 0.000004 -0.000004 2.999990 -5.000238 7.998761 -0.000156 0.078772 -178.867000 -0.781361 -179.999991 0.000005 -1.040997 175.532406 -1.641004 -0.359211 -0.000005 0.000002 0.044875 68.792026 6.888466 2.152739 25.456965 -7.355614 0.000009 -0.227395 176.415030 1.807499 -0.000005 -0.000004 -1.092130 -7.581458 2.378063 0.458593 -0.000003 -0.000003 -0.128319 70.263351 -6.871148 -2.102589 25.456959 7.355613 0.000000 
